<svg width="16" height="16" viewBox="0 0 16 16" fill="none" xmlns="http://www.w3.org/2000/svg">
<path fill-rule="evenodd" clip-rule="evenodd" d="M7.99778 9.67361C9.30859 9.67361 10.3703 8.65615 10.3703 7.39995V4.27366C10.3703 3.01746 9.30859 2 7.99778 2C6.68696 2 5.62526 3.01746 5.62526 4.27366V7.39995C5.62526 8.65615 6.68696 9.67361 7.99778 9.67361ZM7.00654 4.04647C7.64758 3.82122 8.34595 3.82126 8.98701 4.04647C9.24753 4.13802 9.38519 4.42364 9.29365 4.68417C9.20211 4.94461 8.91642 5.08124 8.65595 4.98983C8.22951 4.83999 7.76502 4.84005 7.33857 4.98983C7.07811 5.08136 6.79249 4.94457 6.70087 4.68417C6.60935 4.42372 6.74616 4.1381 7.00654 4.04647ZM8.60036 5.23858C8.20528 5.13862 7.79425 5.13857 7.39919 5.23858C7.13171 5.3065 6.97012 5.57843 7.03786 5.846C7.10573 6.11355 7.37766 6.27605 7.64528 6.20831C7.87932 6.1491 8.12121 6.14907 8.35524 6.20831C8.62286 6.27602 8.89482 6.11358 8.96266 5.846C9.03043 5.57831 8.86806 5.30635 8.60036 5.23858ZM2.95996 7.31454V6.34872C2.95996 6.07257 3.18382 5.84872 3.45996 5.84872C3.7361 5.84872 3.95996 6.07257 3.95996 6.34872V7.31454C3.95996 9.41716 5.75009 11.163 7.99707 11.1632C10.2442 11.1632 12.0352 9.41727 12.0352 7.31454V6.34872C12.0352 6.07257 12.259 5.84872 12.5352 5.84872C12.8112 5.84889 13.0352 6.07268 13.0352 6.34872V7.31454C13.0352 9.84415 11.0266 11.8972 8.49829 12.1393V13.3683C8.49829 13.6445 8.27443 13.8683 7.99829 13.8683C7.72215 13.8683 7.49829 13.6445 7.49829 13.3683V12.1395C4.96901 11.8984 2.95996 9.84486 2.95996 7.31454Z" fill="#262626"/>
</svg>
