<svg width="24" height="24" viewBox="0 0 24 24" fill="none" xmlns="http://www.w3.org/2000/svg">
<path d="M10.8814 3.72877C11.3433 2.80857 12.6567 2.80857 13.1186 3.72877L15.049 7.57523C15.2311 7.93809 15.5779 8.19007 15.9793 8.25114L20.234 8.89847C21.2519 9.05334 21.6578 10.3025 20.9254 11.0261L17.8637 14.0507C17.5749 14.336 17.4424 14.7437 17.5083 15.1443L18.2075 19.3909C18.3747 20.4068 17.3121 21.1788 16.3976 20.7058L12.575 18.7286C12.2143 18.5421 11.7857 18.5421 11.425 18.7286L7.60239 20.7058C6.68788 21.1788 5.62526 20.4068 5.79252 19.3909L6.49165 15.1443C6.55761 14.7437 6.42513 14.336 6.1363 14.0507L3.07464 11.0261C2.34219 10.3025 2.74808 9.05334 3.76595 8.89847L8.02069 8.25114C8.42207 8.19007 8.76889 7.93809 8.951 7.57522L10.8814 3.72877Z" stroke="#666666"/>
</svg>
